<!DOCTYPE svg PUBLIC "-//W3C//DTD SVG 1.1//EN" "http://www.w3.org/Graphics/SVG/1.1/DTD/svg11.dtd">
<!-- Uploaded to: SVG Repo, www.svgrepo.com, Transformed by: SVG Repo Mixer Tools -->
<svg width="800px" height="800px" viewBox="0 0 24 24" xmlns="http://www.w3.org/2000/svg" id="reward-tag" class="icon glyph" fill="#000000">
<g id="SVGRepo_bgCarrier" stroke-width="0"/>
<g id="SVGRepo_tracerCarrier" stroke-linecap="round" stroke-linejoin="round"/>
<g id="SVGRepo_iconCarrier">
<path d="M20,2H4A2,2,0,0,0,2,4v9a2,2,0,0,0,2,2H20a2,2,0,0,0,2-2V4A2,2,0,0,0,20,2Zm-8,9a2.5,2.5,0,1,1,2.5-2.5A2.5,2.5,0,0,1,12,11Zm5,5v5a1,1,0,0,1-1,1,1,1,0,0,1-.24,0L13,21.28V19a1,1,0,0,0-2,0v2.28L8.24,22a1,1,0,0,1-.86-.18A1,1,0,0,1,7,21V16Z" style="fill:#F7A01C"/>
</g>
</svg>